<svg width="35" height="35" viewBox="0 0 35 35" fill="none" xmlns="http://www.w3.org/2000/svg">
<g clip-path="url(#clip0_254_1114)">
<path d="M24.8577 19.4344C24.8438 19.1995 24.7513 18.9761 24.5952 18.8L11.9952 4.79998C11.9048 4.69216 11.7936 4.60362 11.6682 4.53963C11.5429 4.47564 11.406 4.43749 11.2656 4.42746C11.1252 4.41743 10.9842 4.43571 10.8511 4.48124C10.7179 4.52676 10.5952 4.59859 10.4904 4.69245C10.3855 4.78631 10.3006 4.9003 10.2406 5.02763C10.1807 5.15496 10.147 5.29305 10.1415 5.43367C10.1359 5.5743 10.1587 5.7146 10.2085 5.84624C10.2583 5.97789 10.334 6.09818 10.4311 6.19998L22.3968 19.5L10.4311 32.8C10.334 32.9018 10.2583 33.0221 10.2085 33.1537C10.1587 33.2854 10.1359 33.4257 10.1414 33.5663C10.147 33.7069 10.1807 33.845 10.2406 33.9724C10.3006 34.0997 10.3855 34.2137 10.4904 34.3075C10.5953 34.4014 10.7179 34.4732 10.8511 34.5187C10.9842 34.5643 11.1252 34.5826 11.2656 34.5725C11.406 34.5625 11.5429 34.5243 11.6682 34.4604C11.7936 34.3964 11.9048 34.3078 11.9952 34.2L24.5952 20.2C24.6875 20.0961 24.7581 19.9749 24.8032 19.8435C24.8483 19.7121 24.8668 19.573 24.8577 19.4344Z" fill="#1987EC"/>
</g>
<defs>
<clipPath id="clip0_254_1114">
<rect width="35" height="35" fill="white" transform="translate(0 35) rotate(-90)"/>
</clipPath>
</defs>
</svg>
