<svg width="35" height="35" viewBox="0 0 35 35" fill="none" xmlns="http://www.w3.org/2000/svg">
<path d="M10.1423 19.5656C10.1562 19.8005 10.2487 20.0239 10.4048 20.2L23.0048 34.2C23.0952 34.3078 23.2064 34.3964 23.3318 34.4604C23.4571 34.5244 23.594 34.5625 23.7344 34.5725C23.8748 34.5826 24.0158 34.5643 24.1489 34.5188C24.2821 34.4732 24.4047 34.4014 24.5096 34.3075C24.6145 34.2137 24.6994 34.0997 24.7594 33.9724C24.8193 33.845 24.853 33.707 24.8585 33.5663C24.8641 33.4257 24.8413 33.2854 24.7915 33.1538C24.7417 33.0221 24.666 32.9018 24.5689 32.8L12.6032 19.5L24.5689 6.2C24.666 6.0982 24.7417 5.97791 24.7915 5.84626C24.8413 5.71462 24.8641 5.57432 24.8586 5.43369C24.853 5.29306 24.8193 5.15498 24.7594 5.02765C24.6994 4.90031 24.6145 4.78633 24.5096 4.69247C24.4047 4.5986 24.2821 4.52678 24.1489 4.48126C24.0158 4.43573 23.8748 4.41744 23.7344 4.42748C23.594 4.43751 23.4571 4.47565 23.3318 4.53965C23.2064 4.60364 23.0952 4.69218 23.0048 4.8L10.4048 18.8C10.3125 18.9039 10.2419 19.0251 10.1968 19.1565C10.1517 19.2879 10.1332 19.427 10.1423 19.5656Z" fill="#1987EC"/>
</svg>
