<svg width="26" height="24" viewBox="0 0 26 24" fill="none" xmlns="http://www.w3.org/2000/svg">
<path d="M24.375 21.5H23.5V8.375C23.4992 7.67904 23.2224 7.0118 22.7303 6.51968C22.2382 6.02757 21.571 5.75076 20.875 5.75H14.75V3.125C14.7492 2.42904 14.4724 1.7618 13.9803 1.26968C13.4882 0.777565 12.821 0.50076 12.125 0.5H5.125C4.42904 0.50076 3.7618 0.777565 3.26968 1.26968C2.77757 1.7618 2.50076 2.42904 2.5 3.125V21.5H1.625C1.39294 21.5 1.17038 21.5922 1.00628 21.7563C0.842187 21.9204 0.75 22.1429 0.75 22.375C0.75 22.6071 0.842187 22.8296 1.00628 22.9937C1.17038 23.1578 1.39294 23.25 1.625 23.25H24.375C24.6071 23.25 24.8296 23.1578 24.9937 22.9937C25.1578 22.8296 25.25 22.6071 25.25 22.375C25.25 22.1429 25.1578 21.9204 24.9937 21.7563C24.8296 21.5922 24.6071 21.5 24.375 21.5ZM13 6.625V21.5H4.25V3.125C4.25023 2.89301 4.34249 2.67058 4.50654 2.50654C4.67058 2.34249 4.89301 2.25023 5.125 2.25H12.125C12.357 2.25023 12.5794 2.34249 12.7435 2.50654C12.9075 2.67058 12.9998 2.89301 13 3.125V6.625ZM21.75 21.5H14.75V7.5H20.875C21.107 7.50023 21.3294 7.59249 21.4935 7.75654C21.6575 7.92058 21.7498 8.14301 21.75 8.375V21.5Z" fill="#79C6F9"/>
<path d="M7.75 4H6V5.75H7.75V4Z" fill="#79C6F9"/>
<path d="M11.25 4H9.5V5.75H11.25V4Z" fill="#79C6F9"/>
<path d="M11.25 7.5H9.5V9.25H11.25V7.5Z" fill="#79C6F9"/>
<path d="M7.75 7.5H6V9.25H7.75V7.5Z" fill="#79C6F9"/>
<path d="M7.75 11H6V12.75H7.75V11Z" fill="#79C6F9"/>
<path d="M11.25 11H9.5V12.75H11.25V11Z" fill="#79C6F9"/>
<path d="M7.75 14.5H6V16.25H7.75V14.5Z" fill="#79C6F9"/>
<path d="M11.25 14.5H9.5V16.25H11.25V14.5Z" fill="#79C6F9"/>
<path d="M7.75 18H6V19.75H7.75V18Z" fill="#79C6F9"/>
<path d="M11.25 18H9.5V19.75H11.25V18Z" fill="#79C6F9"/>
<path d="M19.125 10.125H17.375V11.875H19.125V10.125Z" fill="#79C6F9"/>
<path d="M19.125 13.625H17.375V15.375H19.125V13.625Z" fill="#79C6F9"/>
<path d="M19.125 17.125H17.375V18.875H19.125V17.125Z" fill="#79C6F9"/>
</svg>
