<svg width="20" height="28" viewBox="0 0 20 28" fill="none" xmlns="http://www.w3.org/2000/svg">
<path d="M19.0375 5.69721L14.5631 1.22281C14.4367 1.09656 14.2866 0.996443 14.1215 0.928187C13.9565 0.859931 13.7795 0.824872 13.6009 0.825013H2.26527C1.90458 0.825013 1.55866 0.968298 1.30361 1.22335C1.04856 1.4784 0.905273 1.82432 0.905273 2.18501V26.24C0.905273 26.6007 1.04856 26.9466 1.30361 27.2017C1.55866 27.4567 1.90458 27.6 2.26527 27.6H18.0753C18.436 27.6 18.7819 27.4567 19.0369 27.2017C19.292 26.9466 19.4353 26.6007 19.4353 26.24V6.65941C19.4354 6.48076 19.4004 6.30383 19.3321 6.13874C19.2638 5.97364 19.1637 5.82361 19.0375 5.69721ZM4.90027 8.33901H12.5095V9.40321H4.90027V8.33901ZM15.4403 20.086H4.90027V19.0218H15.4403V20.086ZM15.4403 16.5228H4.90027V15.462H15.4403V16.5228ZM15.4403 12.98H4.90027V11.9022H15.4403V12.98Z" fill="#349EFF"/>
</svg>
